<?xml version="1.0" encoding="iso-8859-1"?>
<!-- Generator: Adobe Illustrator 19.0.0, SVG Export Plug-In . SVG Version: 6.00 Build 0)  -->
<svg version="1.1" id="Capa_1" xmlns="http://www.w3.org/2000/svg" xmlns:xlink="http://www.w3.org/1999/xlink" x="0px" y="0px"
	 viewBox="0 0 511.692 511.692" style="enable-background:new 0 0 511.692 511.692;" xml:space="preserve">
<polygon style="fill:#FFCE54;" points="431.834,239.801 397.912,273.723 380.951,256.762 414.873,222.832 "/>
<path style="fill:#FC6E51;" d="M423.354,214.351l-8.48,8.48l16.961,16.969l8.48-8.488c4.639-4.638,4.693-12.268,0-16.961
	C435.684,209.721,427.993,209.713,423.354,214.351z"/>
<g style="opacity:0.3;">
	<path style="fill:#FFFFFF;" d="M442.634,217.717c-0.569-1.21-1.319-2.366-2.319-3.366c-4.631-4.63-12.322-4.638-16.961,0
		l-8.48,8.48l5.654,5.654l8.48-8.48C432.662,216.358,438.183,215.624,442.634,217.717z"/>
</g>
<path style="fill:#CCD1D9;" d="M349.005,11.983c-3.124,3.132-3.124,8.184,0,11.315l5.653,5.654l11.308-11.315l-5.653-5.654
	C357.189,8.86,352.129,8.86,349.005,11.983z"/>
<path style="fill:#656D78;" d="M83.229,296.993c2.998-1.078,17.008-12.269,23.06-18.312l-1.929,20.741L83.229,296.993"/>
<path style="fill:#AAB2BD;" d="M226.195,213.953l-28.269-28.269l5.653-5.654L377.274,6.329c3.107-3.108,8.199-3.108,11.307,0
	l5.662,5.653c3.107,3.108,3.162,8.145,0,11.315l0.055,0.055l-87.53,87.53l5.591,5.599c3.116,3.108,3.171,8.137,0,11.308
	l-5.653,5.654l-74.856,74.856L226.195,213.953z"/>
<g style="opacity:0.5;">
	<path style="fill:#FFFFFF;" d="M377.274,6.329L203.579,180.031l5.654,5.654L382.927,11.983c3.108-3.107,8.199-3.107,11.315,0
		L388.58,6.33C385.473,3.221,380.381,3.221,377.274,6.329z"/>
</g>
<path style="fill:#656D78;" d="M226.195,213.953l5.653-5.654l74.856-74.856l5.653-5.654c3.171-3.17,3.116-8.199,0-11.308
	l-5.591-5.599l-91.879,91.764L226.195,213.953z"/>
<path style="fill:#CCD1D9;" d="M113.114,270.497c-12.502,12.494-12.502,32.743,0,45.237c5.481,5.482,12.439,8.598,19.561,9.27
	c9.152,0.796,18.656-2.257,25.668-9.27l5.654-5.654l-45.229-45.236L113.114,270.497z"/>
<g style="opacity:0.7;">
	<path style="fill:#FFFFFF;" d="M113.114,270.497c-12.502,12.494-12.502,32.743,0,45.237c1.03,1.031,2.163,1.897,3.295,2.765
		c-9.933-12.558-9.238-30.752,2.358-42.349l5.654-5.653l-5.654-5.653L113.114,270.497z"/>
</g>
<g style="opacity:0.2;">
	<path d="M127.021,319.35c-5.786-0.547-11.409-2.787-16.266-6.505c0.765,0.977,1.452,1.983,2.358,2.89
		c5.481,5.482,12.439,8.598,19.561,9.27c9.152,0.796,18.656-2.257,25.668-9.27l5.654-5.654l-5.654-5.653l-5.654,5.653
		C145.677,317.093,136.173,320.147,127.021,319.35z"/>
</g>
<polygon style="fill:#CCD1D9;" points="169.65,213.953 214.887,259.19 163.996,310.08 118.767,264.844 "/>
<path style="fill:#7F4545;" d="M130.075,332.696l39.575,39.576c-8.988,32.297,8.488,53.717,39.865,73.224l-62.198,62.198
	c-33.922-44.667-45.347-124.279-17.242-152.383V332.696z"/>
<g style="opacity:0.2;">
	<path d="M165.206,367.828c-14.985,38.014,1.617,69.468,33.001,88.982l11.307-11.315c-31.376-19.507-48.853-40.927-39.865-73.224
		L165.206,367.828z"/>
</g>
<g style="opacity:0.2;">
	<path style="fill:#FFFFFF;" d="M141.382,355.311v-11.308l-11.307-11.308v22.615c-28.104,28.104-16.68,107.716,17.242,152.383
		l6.668-6.669C123.757,455.498,114.613,382.079,141.382,355.311z"/>
</g>
<path style="fill:#AAB2BD;" d="M169.65,372.272l-39.575-39.576l2.6-7.691c9.152,0.796,18.656-2.257,25.668-9.27l5.654-5.654
	l50.891-50.891l-45.237-45.236l5.654-5.654l22.623-22.614l28.269,28.269l5.771,5.771c0,0-11.425,22.505,11.081,45.011
	L175.306,366.62L169.65,372.272z"/>
<g style="opacity:0.2;">
	<path d="M192.272,191.338l22.615,22.615l5.771,5.771c0,0-11.424,22.505,11.081,45.011l-67.742,101.883l5.653,5.654l5.654-5.654
		l67.743-101.883c-22.506-22.505-11.081-45.011-11.081-45.011l-5.771-5.771l-28.269-28.269L192.272,191.338z"/>
</g>
<path style="fill:#AAB2BD;" d="M158.343,259.19c-3.124,3.124-3.116,8.192,0,11.308c3.124,3.124,8.184,3.124,11.307,0l28.276-28.268
	l-11.308-11.315L158.343,259.19z"/>
<g style="opacity:0.2;">
	<polygon points="360.313,11.983 349.005,23.298 354.659,28.952 365.966,17.637 	"/>
</g>
<g style="opacity:0.2;">
	<rect x="210.884" y="176.986" transform="matrix(-0.707 0.7072 -0.7072 -0.707 506.1075 184.272)" width="7.996" height="39.978"/>
</g>
<g style="opacity:0.2;">
	<polygon points="226.195,202.646 312.358,116.482 306.767,110.883 220.595,197.047 	"/>
</g>
<g style="opacity:0.7;">
	
		<rect x="111.071" y="238.229" transform="matrix(-0.7071 0.7072 -0.7072 -0.7071 422.3244 309.5027)" style="fill:#FFFFFF;" width="71.969" height="7.995"/>
</g>
<g style="opacity:0.2;">
	
		<rect x="150.626" y="277.809" transform="matrix(-0.7071 0.7071 -0.7071 -0.7071 517.8307 349.1202)" width="71.969" height="7.995"/>
</g>
<g style="opacity:0.5;">
	
		<rect x="376.769" y="238.604" transform="matrix(-0.707 0.7072 -0.7072 -0.707 855.6924 130.7677)" style="fill:#FFFFFF;" width="47.978" height="8.07"/>
</g>
<polygon style="fill:#FFCE54;" points="359.805,351.859 325.883,317.937 308.914,334.898 342.844,368.82 "/>
<path style="fill:#FC6E51;" d="M351.325,377.308l-8.48-8.488l16.961-16.961l8.48,8.48c4.639,4.639,4.693,12.275,0,16.969
	C363.655,381.939,355.963,381.947,351.325,377.308z"/>
<g style="opacity:0.3;">
	<path style="fill:#FFFFFF;" d="M370.597,373.943c-0.562,1.21-1.312,2.366-2.312,3.365c-4.631,4.631-12.322,4.639-16.961,0
		l-8.48-8.488l5.653-5.653l8.481,8.48C360.625,375.301,366.146,376.028,370.597,373.943z"/>
</g>
<g style="opacity:0.5;">
	
		<rect x="304.765" y="344.968" transform="matrix(-0.7072 -0.707 0.707 -0.7072 314.5042 828.2512)" style="fill:#FFFFFF;" width="47.978" height="8.07"/>
</g>
<g>
	<path style="fill:#3A3847;" d="M147.317,511.692c-1.023,0-2.046-0.391-2.827-1.171c-1.562-1.562-1.562-4.093,0-5.654l62.198-62.198
		c1.562-1.562,4.092-1.562,5.653,0c1.562,1.562,1.562,4.092,0,5.654l-62.198,62.198
		C149.363,511.301,148.339,511.692,147.317,511.692z"/>
	<path style="fill:#3A3847;" d="M169.65,376.27c-1.022,0-2.046-0.391-2.827-1.172l-39.576-39.575c-1.562-1.562-1.562-4.093,0-5.654
		c1.562-1.561,4.092-1.562,5.654,0l39.576,39.576c1.562,1.562,1.562,4.092,0,5.653C171.696,375.879,170.673,376.27,169.65,376.27z"
		/>
	<path style="fill:#3A3847;" d="M147.321,511.692c-1.207,0-2.401-0.547-3.187-1.577c-33.203-43.723-47.814-126.708-16.887-157.631
		c1.562-1.562,4.092-1.562,5.654,0s1.562,4.092,0,5.653c-25.504,25.504-16.293,102.508,17.597,147.136
		c1.339,1.765,0.996,4.271-0.765,5.606C149.011,511.426,148.163,511.692,147.321,511.692z"/>
	<path style="fill:#3A3847;" d="M130.075,359.309c-2.21,0-3.999-1.789-3.999-3.998v-22.615c0-2.21,1.789-3.998,3.999-3.998
		s3.998,1.788,3.998,3.998v22.615C134.073,357.52,132.285,359.309,130.075,359.309z"/>
	<path style="fill:#3A3847;" d="M209.511,449.493c-0.722,0-1.449-0.195-2.108-0.601c-25.094-15.603-52.503-38.537-41.606-77.691
		c0.594-2.132,2.812-3.373,4.928-2.78c2.124,0.594,3.369,2.796,2.78,4.92c-7.493,26.925,3.908,47.486,38.123,68.758
		c1.875,1.163,2.448,3.631,1.285,5.505C212.154,448.823,210.846,449.493,209.511,449.493z"/>
	<path style="fill:#3A3847;" d="M175.3,370.616c-0.761,0-1.531-0.219-2.21-0.672c-1.839-1.218-2.338-3.701-1.117-5.536
		l67.742-101.883c1.219-1.858,3.709-2.343,5.545-1.116c1.839,1.218,2.339,3.701,1.116,5.536l-67.742,101.883
		C177.865,369.991,176.592,370.616,175.3,370.616z"/>
	<path style="fill:#3A3847;" d="M243.046,268.733c-1.023,0-2.046-0.391-2.827-1.172c-24.274-24.277-11.947-49.398-11.818-49.648
		c0.995-1.968,3.396-2.749,5.376-1.757c1.968,0.999,2.753,3.412,1.753,5.38c-0.398,0.805-9.714,20.311,10.343,40.372
		c1.562,1.562,1.562,4.092,0,5.653C245.092,268.342,244.069,268.733,243.046,268.733z"/>
	<path style="fill:#3A3847;" d="M203.267,375.114c-4.639,0-9.312-1.358-13.392-4.186c-2.222-1.577-4.143-3.451-5.736-5.599
		c-1.312-1.772-0.941-4.279,0.832-5.592c1.788-1.312,4.279-0.937,5.595,0.828c1.085,1.468,2.397,2.749,3.896,3.811
		c7.043,4.889,16.864,3.085,21.837-4.053l9.594-13.899c2.417-3.46,3.326-7.638,2.573-11.761c-0.75-4.107-3.061-7.668-6.508-10.034
		c-1.785-1.227-3.768-2.108-5.752-2.562c-2.155-0.484-3.506-2.624-3.018-4.779c0.488-2.155,2.616-3.529,4.783-3.014
		c2.967,0.671,5.912,1.976,8.516,3.764c5.212,3.576,8.711,8.973,9.847,15.188c1.136,6.239-0.234,12.549-3.869,17.758l-9.594,13.899
		C218.229,371.537,210.795,375.114,203.267,375.114z"/>
	<path style="fill:#3A3847;" d="M209.238,359.309c-0.262,0-0.523-0.023-0.789-0.078l-14.134-2.827
		c-2.163-0.43-3.569-2.538-3.135-4.701c0.434-2.179,2.526-3.576,4.705-3.14l14.134,2.827c2.163,0.43,3.569,2.538,3.136,4.701
		C212.775,357.996,211.104,359.309,209.238,359.309z"/>
	<path style="fill:#3A3847;" d="M135.544,329.127c-1.065,0-2.14-0.047-3.217-0.141c-8.282-0.781-16.099-4.482-22.041-10.425
		c-6.802-6.794-10.546-15.837-10.546-25.442c0-9.612,3.744-18.655,10.546-25.449c1.562-1.562,4.092-1.562,5.653,0
		c1.562,1.562,1.562,4.092,0,5.654c-5.29,5.286-8.203,12.314-8.203,19.795c0,7.474,2.913,14.502,8.203,19.788
		c4.631,4.631,10.706,7.513,17.109,8.114c8.403,0.772,16.583-2.227,22.467-8.114c1.562-1.562,4.092-1.562,5.653,0
		c1.562,1.562,1.562,4.092,0,5.654C154.364,325.371,145.165,329.127,135.544,329.127z"/>
	<path style="fill:#3A3847;" d="M163.996,314.079c-1.023,0-2.046-0.391-2.827-1.172c-1.562-1.562-1.562-4.092,0-5.653l50.891-50.891
		c1.562-1.562,4.092-1.562,5.654,0c1.562,1.562,1.562,4.092,0,5.653l-50.891,50.891
		C166.042,313.689,165.019,314.079,163.996,314.079z"/>
	<path style="fill:#3A3847;" d="M214.887,263.188c-1.023,0-2.046-0.39-2.827-1.171l-45.237-45.237c-1.562-1.562-1.562-4.092,0-5.653
		s4.092-1.562,5.654,0l45.237,45.237c1.562,1.562,1.562,4.092,0,5.653C216.933,262.798,215.91,263.188,214.887,263.188z"/>
	<path style="fill:#3A3847;" d="M118.767,268.842c-1.023,0-2.046-0.391-2.827-1.172c-1.562-1.562-1.562-4.092,0-5.653l50.883-50.891
		c1.562-1.562,4.092-1.562,5.654,0c1.562,1.562,1.562,4.092,0,5.653l-50.883,50.891C120.813,268.451,119.79,268.842,118.767,268.842
		z"/>
	<path style="fill:#3A3847;" d="M163.996,314.079c-1.023,0-2.046-0.391-2.827-1.172L115.94,267.67c-1.562-1.562-1.562-4.092,0-5.653
		c1.562-1.562,4.092-1.562,5.654,0l45.229,45.237c1.562,1.562,1.562,4.092,0,5.653C166.042,313.689,165.019,314.079,163.996,314.079
		z"/>
	<path style="fill:#3A3847;" d="M158.343,263.188c-1.023,0-2.046-0.39-2.827-1.171c-1.562-1.562-1.562-4.092,0-5.653l22.622-22.615
		c1.562-1.562,4.092-1.562,5.654,0s1.562,4.092,0,5.654l-22.623,22.614C160.389,262.798,159.366,263.188,158.343,263.188z"/>
	<path style="fill:#3A3847;" d="M169.65,274.495c-1.022,0-2.046-0.39-2.827-1.171c-1.562-1.562-1.562-4.092,0-5.654l22.623-22.614
		c1.562-1.562,4.092-1.562,5.653,0c1.562,1.562,1.562,4.092,0,5.654l-22.622,22.615C171.696,274.106,170.673,274.495,169.65,274.495
		z"/>
	<path style="fill:#3A3847;" d="M163.996,276.83c-3.073,0-6.142-1.171-8.48-3.506c-4.678-4.678-4.678-12.283,0-16.961
		c1.562-1.562,4.092-1.562,5.653,0c1.562,1.562,1.562,4.092,0,5.653c-1.558,1.562-1.558,4.092,0,5.653
		c1.562,1.562,4.092,1.562,5.654,0c1.562-1.562,4.092-1.562,5.654,0c1.562,1.562,1.562,4.092,0,5.654
		C170.138,275.659,167.069,276.83,163.996,276.83z"/>
	<path style="fill:#3A3847;" d="M231.965,223.722c-1.023,0-2.046-0.391-2.827-1.171l-34.039-34.04c-1.562-1.562-1.562-4.092,0-5.654
		c1.562-1.562,4.092-1.562,5.654,0l34.04,34.039c1.562,1.562,1.562,4.092,0,5.654C234.011,223.331,232.988,223.722,231.965,223.722z
		"/>
	<path style="fill:#3A3847;" d="M175.304,212.298c-1.023,0-2.046-0.39-2.827-1.171c-1.562-1.562-1.562-4.092,0-5.653l22.622-22.615
		c1.562-1.562,4.092-1.562,5.654,0c1.562,1.562,1.562,4.092,0,5.654l-22.623,22.615
		C177.349,211.908,176.326,212.298,175.304,212.298z"/>
	<path style="fill:#3A3847;" d="M67.876,308.426c-1.023,0-2.046-0.391-2.827-1.172c-1.562-1.562-1.562-4.092,0-5.654
		c5.947-5.949,9.727-6.637,13.061-7.238c1.062-0.195,2.167-0.375,3.456-0.859c1.964-0.71,5.216-2.334,11.409-8.527
		c1.562-1.562,4.092-1.562,5.654,0s1.562,4.092,0,5.654c-5.654,5.653-10.062,8.855-14.306,10.378
		c-1.753,0.655-3.295,0.952-4.791,1.226c-2.698,0.484-4.646,0.836-8.828,5.021C69.926,308.035,68.899,308.426,67.876,308.426z"/>
	<path style="fill:#3A3847;" d="M96.149,302.764c-0.152,0-0.309-0.008-0.465-0.023l-13.174-1.522
		c-2.19-0.258-3.764-2.241-3.51-4.436c0.253-2.187,2.218-3.726,4.431-3.515l13.174,1.523c2.19,0.258,3.764,2.241,3.51,4.436
		C99.881,301.265,98.152,302.764,96.149,302.764z"/>
	<path style="fill:#3A3847;" d="M203.579,184.03c-1.022,0-2.046-0.391-2.827-1.172c-1.562-1.562-1.562-4.092,0-5.653L374.447,3.502
		c1.562-1.562,4.092-1.562,5.653,0c1.562,1.562,1.562,4.092,0,5.654L206.407,182.858C205.625,183.639,204.603,184.03,203.579,184.03
		z"/>
	<path style="fill:#3A3847;" d="M220.595,201.045c-1.022,0-2.046-0.391-2.826-1.172c-1.562-1.562-1.562-4.092,0-5.653L391.47,20.526
		c1.562-1.562,4.092-1.562,5.653,0c1.562,1.562,1.562,4.092,0,5.654L223.422,199.873
		C222.641,200.655,221.618,201.045,220.595,201.045z"/>
	<path style="fill:#3A3847;" d="M388.58,10.327c-1.022,0-2.045-0.391-2.826-1.171c-1.562-1.562-4.092-1.562-5.654,0
		c-1.562,1.562-4.092,1.562-5.653,0c-1.562-1.562-1.562-4.092,0-5.654c4.67-4.669,12.292-4.669,16.961,0
		c1.562,1.562,1.562,4.092,0,5.654C390.627,9.937,389.604,10.327,388.58,10.327z"/>
	<path style="fill:#3A3847;" d="M394.243,27.296c-1.023,0-2.046-0.391-2.827-1.171c-1.562-1.554-1.562-4.084,0-5.654
		c1.585-1.585,1.585-4.076,0-5.661c-1.562-1.562-1.562-4.092,0-5.653c1.562-1.562,4.092-1.562,5.653,0
		c4.67,4.669,4.678,12.283,0,16.969C396.288,26.906,395.266,27.296,394.243,27.296z"/>
	<path style="fill:#3A3847;" d="M394.243,15.981c-1.023,0-2.046-0.39-2.827-1.171l-5.661-5.653c-1.562-1.562-1.562-4.092,0-5.654
		s4.092-1.562,5.653,0l5.661,5.654c1.562,1.562,1.562,4.092,0,5.653C396.288,15.591,395.266,15.981,394.243,15.981z"/>
	<path style="fill:#3A3847;" d="M231.848,212.298c-1.023,0-2.046-0.39-2.827-1.171c-1.562-1.562-1.562-4.092,0-5.653l80.511-80.51
		c1.562-1.562,4.092-1.562,5.653,0s1.562,4.092,0,5.654l-80.51,80.51C233.894,211.908,232.871,212.298,231.848,212.298z"/>
	<path style="fill:#3A3847;" d="M312.358,131.787c-1.022,0-2.046-0.391-2.826-1.171c-1.562-1.562-1.562-4.092,0-5.654
		c0.765-0.765,1.187-1.773,1.187-2.827c0-1.062-0.422-2.062-1.187-2.827c-1.562-1.554-1.562-4.084,0-5.653
		c1.562-1.562,4.092-1.562,5.653,0c2.272,2.264,3.529,5.278,3.529,8.473c0,3.201-1.249,6.208-3.529,8.488
		C314.404,131.397,313.381,131.787,312.358,131.787z"/>
	<path style="fill:#3A3847;" d="M312.358,143.095c-1.022,0-2.046-0.391-2.826-1.171l-5.654-5.654c-1.562-1.562-1.562-4.092,0-5.653
		c1.562-1.562,4.092-1.562,5.654,0l5.653,5.653c1.562,1.562,1.562,4.092,0,5.654C314.404,142.704,313.381,143.095,312.358,143.095z"
		/>
	<path style="fill:#3A3847;" d="M349.005,27.296c-1.022,0-2.046-0.391-2.827-1.171c-4.677-4.686-4.669-12.299,0-16.969
		c4.67-4.67,12.292-4.67,16.961,0c1.562,1.562,1.562,4.092,0,5.653c-1.562,1.562-4.092,1.562-5.653,0
		c-1.499-1.499-4.154-1.499-5.653,0c-1.562,1.562-1.555,4.1,0,5.661c1.562,1.57,1.562,4.1,0,5.654
		C351.051,26.906,350.029,27.296,349.005,27.296z"/>
	<path style="fill:#3A3847;" d="M380.951,260.76c-1.023,0-2.046-0.391-2.826-1.172c-1.562-1.562-1.562-4.092,0-5.653l33.922-33.93
		c1.562-1.562,4.092-1.562,5.653,0c1.562,1.562,1.562,4.092,0,5.653l-33.922,33.93C382.997,260.369,381.975,260.76,380.951,260.76z"
		/>
	<path style="fill:#3A3847;" d="M397.912,277.721c-1.022,0-2.046-0.391-2.826-1.172c-1.562-1.562-1.562-4.092,0-5.653l33.922-33.922
		c1.562-1.562,4.092-1.562,5.653,0c1.562,1.562,1.562,4.092,0,5.653l-33.922,33.922C399.958,277.33,398.936,277.721,397.912,277.721
		z"/>
	<path style="fill:#3A3847;" d="M400.74,280.547c-1.023,0-2.046-0.39-2.827-1.171l-22.614-22.614c-1.562-1.562-1.562-4.092,0-5.654
		c1.562-1.562,4.092-1.562,5.653,0l22.615,22.615c1.562,1.562,1.562,4.092,0,5.653C402.785,280.158,401.762,280.547,400.74,280.547z
		"/>
	<path style="fill:#3A3847;" d="M431.834,243.799c-1.022,0-2.046-0.391-2.826-1.172l-16.961-16.969
		c-1.562-1.562-1.562-4.092,0-5.653c1.562-1.562,4.092-1.562,5.653,0l16.961,16.969c1.562,1.562,1.562,4.092,0,5.653
		C433.88,243.408,432.858,243.799,431.834,243.799z"/>
	<path style="fill:#3A3847;" d="M420.528,221.176c-1.023,0-2.047-0.39-2.827-1.171c-1.562-1.562-1.562-4.092,0-5.654l2.827-2.827
		c1.562-1.562,4.092-1.562,5.653,0c1.562,1.562,1.562,4.092,0,5.653l-2.827,2.827C422.574,220.786,421.55,221.176,420.528,221.176z"
		/>
	<path style="fill:#3A3847;" d="M437.489,238.137c-1.023,0-2.047-0.39-2.827-1.171c-1.562-1.562-1.562-4.092,0-5.654l2.827-2.827
		c1.562-1.562,4.092-1.562,5.653,0c1.562,1.562,1.562,4.092,0,5.653l-2.827,2.827C439.535,237.747,438.511,238.137,437.489,238.137z
		"/>
	<path style="fill:#3A3847;" d="M440.315,235.311c-1.022,0-2.046-0.391-2.826-1.172c-1.562-1.562-1.562-4.092,0-5.653
		c3.115-3.116,3.115-8.191,0-11.308c-3.062-3.061-8.246-3.061-11.308,0c-1.562,1.562-4.092,1.562-5.653,0
		c-1.562-1.562-1.562-4.092,0-5.653c6.231-6.231,16.383-6.231,22.614,0s6.231,16.383,0,22.614
		C442.361,234.92,441.338,235.311,440.315,235.311z"/>
	<path style="fill:#3A3847;" d="M359.805,355.857c-1.023,0-2.046-0.391-2.826-1.171l-33.923-33.922
		c-1.562-1.562-1.562-4.092,0-5.654c1.562-1.562,4.092-1.562,5.654,0l33.922,33.922c1.562,1.562,1.562,4.092,0,5.654
		C361.851,355.466,360.828,355.857,359.805,355.857z"/>
	<path style="fill:#3A3847;" d="M342.844,372.818c-1.023,0-2.046-0.39-2.827-1.171l-33.93-33.922c-1.562-1.562-1.562-4.092,0-5.654
		c1.562-1.562,4.092-1.562,5.653,0l33.931,33.922c1.562,1.562,1.562,4.092,0,5.654C344.89,372.428,343.868,372.818,342.844,372.818z
		"/>
	<path style="fill:#3A3847;" d="M306.087,341.723c-1.022,0-2.046-0.391-2.827-1.172c-1.562-1.562-1.562-4.092,0-5.653l22.623-22.614
		c1.562-1.562,4.092-1.562,5.653,0c1.562,1.562,1.562,4.092,0,5.653l-22.622,22.614
		C308.133,341.332,307.111,341.723,306.087,341.723z"/>
	<path style="fill:#3A3847;" d="M342.844,372.818c-1.023,0-2.046-0.39-2.827-1.171c-1.562-1.562-1.562-4.092,0-5.654l16.962-16.961
		c1.562-1.562,4.092-1.562,5.653,0c1.562,1.562,1.562,4.092,0,5.654l-16.961,16.961C344.89,372.428,343.868,372.818,342.844,372.818
		z"/>
	<path style="fill:#3A3847;" d="M368.285,364.337c-1.023,0-2.046-0.391-2.826-1.171l-2.827-2.827c-1.562-1.562-1.562-4.092,0-5.653
		c1.562-1.562,4.092-1.562,5.653,0l2.827,2.826c1.562,1.562,1.562,4.092,0,5.654C370.331,363.947,369.309,364.337,368.285,364.337z"
		/>
	<path style="fill:#3A3847;" d="M351.325,381.306c-1.023,0-2.046-0.39-2.827-1.171l-2.826-2.827c-1.562-1.562-1.562-4.092,0-5.653
		c1.562-1.562,4.092-1.562,5.653,0l2.827,2.826c1.562,1.562,1.562,4.092,0,5.654C353.37,380.916,352.348,381.306,351.325,381.306z"
		/>
	<path style="fill:#3A3847;" d="M359.805,384.813c-4.1,0-8.191-1.562-11.308-4.678c-1.562-1.562-1.562-4.092,0-5.654
		c1.562-1.562,4.093-1.562,5.654,0c3.123,3.124,8.184,3.124,11.308,0c3.115-3.123,3.115-8.199,0-11.314
		c-1.562-1.562-1.562-4.092,0-5.654c1.562-1.562,4.092-1.562,5.653,0c6.231,6.232,6.231,16.376,0,22.623
		C367.996,383.25,363.897,384.813,359.805,384.813z"/>
</g>
<g>
</g>
<g>
</g>
<g>
</g>
<g>
</g>
<g>
</g>
<g>
</g>
<g>
</g>
<g>
</g>
<g>
</g>
<g>
</g>
<g>
</g>
<g>
</g>
<g>
</g>
<g>
</g>
<g>
</g>
</svg>
